<?xml version="1.0" encoding="utf-8"?>
<!-- Generator: Adobe Illustrator 24.2.0, SVG Export Plug-In . SVG Version: 6.00 Build 0)  -->
<svg version="1.1"
	 id="svg8" inkscape:export-filename="/Users/utilisateur/Desktop/SINGULARITY/CLIENTS/ENTREPRISES/vec logo formadult.png" inkscape:export-xdpi="93" inkscape:export-ydpi="93" inkscape:version="1.0 (4035a4f, 2020-05-01)" sodipodi:docname="logo formadult.svg" xmlns:cc="http://creativecommons.org/ns#" xmlns:dc="http://purl.org/dc/elements/1.1/" xmlns:inkscape="http://www.inkscape.org/namespaces/inkscape" xmlns:rdf="http://www.w3.org/1999/02/22-rdf-syntax-ns#" xmlns:sodipodi="http://sodipodi.sourceforge.net/DTD/sodipodi-0.dtd" xmlns:svg="http://www.w3.org/2000/svg"
	 xmlns="http://www.w3.org/2000/svg" xmlns:xlink="http://www.w3.org/1999/xlink" x="0px" y="0px" viewBox="0 0 377.1 110.7"
	 style="enable-background:new 0 0 377.1 110.7;" xml:space="preserve">
<style type="text/css">
	.st0{fill:#22324C;stroke:#000000;stroke-width:6.911150e-02;stroke-miterlimit:11.3386;stroke-opacity:0;}
	.st1{fill:#FFFFFF;}
	.st2{font-family:'FredokaOne-Regular';}
	.st3{font-size:16.8221px;}
	.st4{fill:#6EADF2;stroke:#000000;stroke-width:7.418636e-02;stroke-miterlimit:11.3386;stroke-opacity:0;}
	.st5{fill:#1E9BA1;stroke:#000000;stroke-width:7.499991e-02;stroke-miterlimit:11.3386;stroke-opacity:0;}
	
		.st6{opacity:0.998;fill:#22324C;stroke:#00002B;stroke-width:0.7512;stroke-miterlimit:11.3386;stroke-opacity:0;enable-background:new    ;}
	.st7{font-size:58.3046px;}
	.st8{fill:#22324C;stroke:#000000;stroke-width:0.75;stroke-miterlimit:11.3386;stroke-opacity:0;}
	.st9{fill:#4AE5EC;}
	.st10{fill:#FFFFFF;stroke:#000000;stroke-width:7.499991e-02;stroke-miterlimit:11.3386;stroke-opacity:0;}
	.st11{fill:#22324C;}
</style>
<sodipodi:namedview  bordercolor="#666666" borderopacity="1.0" id="base" inkscape:current-layer="layer1" inkscape:cx="263.79162" inkscape:cy="81.636372" inkscape:document-rotation="0" inkscape:document-units="mm" inkscape:guide-bbox="true" inkscape:pageopacity="0.0" inkscape:pageshadow="2" inkscape:snap-bbox="false" inkscape:snap-global="false" inkscape:window-height="943" inkscape:window-maximized="0" inkscape:window-width="1434" inkscape:window-x="47" inkscape:window-y="62" inkscape:zoom="1.3995495" pagecolor="#ffffff" showgrid="false" showguides="true">
	</sodipodi:namedview>
<g id="layer1" inkscape:groupmode="layer" inkscape:label="Calque 1">
	<g id="g1709">
		<rect id="rect843" y="18.7" class="st0" width="354.6" height="92"/>
		<text transform="matrix(0.9358 0 0 1 23.5938 97.2836)" class="st1 st2 st3">Vos projets prennent forme</text>
		<rect id="rect889" x="302.3" class="st4" width="74.9" height="61.1"/>
		<rect id="rect891" x="302.3" y="18.7" class="st5" width="52.4" height="42.4"/>
		<path id="path911" sodipodi:nodetypes="ccscc" class="st6" d="M57.6,76.7c1-9.1,4.8-12.3,12.4-11.6c4.7,0.1,9.7-0.4,11.9,11.2
			c2.1,11.2-20,2.2-20,2.2L57.6,76.7z"/>
		<text transform="matrix(0.9861 0 0 1 21.1026 76.0824)" class="st1 st2 st7">FormAdult</text>
		<path id="path1074" sodipodi:nodetypes="cscscc" class="st8" d="M67.1,65c-5,1-5.9,2.5-8.4,7.6c-3.2,6.8,20.8,9.2,22.4,0.4
			c-0.5-0.2-3.2-8.8-9.6-7.7c-8.3,1.5-4.5-2.7-4.5-2.7L67.1,65z"/>
		<path id="path1090" class="st9" d="M323.3,56c-0.2-0.2-0.2-0.2-0.5-0.1c-0.6,0.2-1,0.1-1.2-0.1c-0.1-0.1-0.2-0.2-0.2-0.3
			c0-0.1-0.1-0.1-0.2-0.1c-0.3,0.1-0.8-0.1-1-0.3c-0.1-0.1-0.3-0.2-0.4-0.2c-0.3-0.1-0.1-0.3,0.4-0.5l0.4-0.1l0-0.4
			c0-0.4,0-0.5,0.2-0.5c0.3-0.1,0.9-0.8,0.7-1c0,0,0-0.1,0.1-0.2c0.1-0.1,0.2-0.2,0.2-0.4c0-0.1,0.1-0.3,0.2-0.4
			c0.1-0.1,0.2-0.3,0.2-0.4c0-0.1,0.2-0.3,0.4-0.5c0.2-0.2,0.3-0.4,0.3-0.4c0,0,0-0.2,0.1-0.3c0.1-0.3,0.2-1.6,0.1-1.9
			c0-0.1,0-0.3,0-0.4c0.1-0.2,0.1-0.2-0.1-0.3c-0.2-0.1-0.2-0.4-0.1-0.6c0.3-0.4,0.9-1.1,1.1-1.1c0.1,0,0.3-0.2,0.3-0.5
			c0-0.1,0.1-0.2,0.1-0.3c0.2-0.2,0.3-0.5,0.4-1.1c0-0.3,0.1-0.7,0.2-0.8c0.1-0.2,0.1-0.2,0-0.4c-0.1-0.1-0.2-0.2-0.3-0.1
			c-0.1,0-0.2,0-0.4-0.2c-0.1-0.2-0.2-0.3-0.2-0.4c0-0.2-0.3-0.7-0.4-0.7c-0.1,0-0.2-0.1-0.4-0.1c-0.2,0-0.3-0.1-0.3-0.1
			c0-0.1,0-0.1,0-0.2s-0.1-0.1-0.2-0.2c-0.3-0.1-0.7-0.7-0.8-1c0-0.1-0.2-0.4-0.3-0.5l-0.3-0.2l0.2-0.4c0.2-0.4,0.2-0.5-0.2-0.6
			c-0.2-0.1-0.2-0.1-0.2-0.8c0-0.5,0-0.7-0.2-0.9c-0.2-0.2-0.4-0.8-0.3-0.9c0,0,0-0.2,0-0.3c-0.1-0.2-0.1-0.3,0-0.4
			c0.2-0.2,0.2-0.6,0.1-0.8c-0.1-0.1-0.1-0.3-0.1-0.5c0-0.4,0-0.4-0.2-0.5c-0.2-0.1-0.2-0.1-0.2-0.3c0-0.1,0-0.4,0-0.7
			c-0.1-0.5,0-0.6,0.1-0.8c0.1-0.1,0.2-0.3,0.2-0.4c0-0.2,0.2-0.8,0.4-1c0.2-0.3,0.4-0.5,0.7-1c0.3-0.5,0.6-0.8,1.6-1.4
			c0.1-0.1,0.2-0.2,0.2-0.2c0-0.2,0.2-0.4,0.7-0.9c0.5-0.5,0.5-0.5,0.6-1.1c0-0.3,0.1-0.6,0.2-0.7c0.1-0.1,0.2-0.3,0.2-0.4
			c0.1-0.2,0.1-0.2,0.5-0.3c0.5-0.1,1,0.1,1.9,0.5c0.3,0.2,0.6,0.3,0.7,0.3c0.1,0,0.6,0.2,1,0.4c0.7,0.3,0.9,0.4,1.1,0.4
			c0.3,0,1,0.1,1.1,0.2c0.1,0.1,0.3,0.1,0.4-0.1l0.1-0.2l0.4,0.2c0.2,0.1,0.5,0.2,0.6,0.2c0.1,0,0.3,0.2,0.5,0.3
			c0.2,0.2,0.4,0.3,0.8,0.3c0.3,0,0.6,0.2,1,0.4c0.3,0.2,0.6,0.3,0.6,0.3c0.1,0,0.6,0.4,1,0.8c0.6,0.6,2.2,2,2.2,2
			c0,0,0.2,0.1,0.4,0.3c0.2,0.2,0.5,0.4,0.7,0.5c0.2,0.1,0.3,0.3,0.4,0.4c0.1,0.3,0.3,0.3,0.5,0.2c0.2-0.2,0.4-0.2,0.7,0.2
			c0.1,0.2,0.3,0.4,0.4,0.4c0.1,0.1,0.2,0.2,0.3,0.3c0.1,0.1,0.2,0.2,0.2,0.2s0.2,0.1,0.3,0.2c0.2,0.1,0.4,0.3,0.6,0.4
			c0.2,0.1,0.5,0.3,0.6,0.5c0.3,0.3,0.6,0.4,0.8,0.3c0.2-0.2,0.3-0.1,0.7,0.1c0.4,0.3,0.6,0.6,0.7,1.1c0.1,0.6,0.1,0.6,0.3,0.7
			c0.1,0,0.2,0.1,0.1,0.2c-0.1,0.1-0.1,0.1,0,0.3c0.1,0.1,0.2,0.1,0.3,0.1c0.2,0,0.2,0,0,0.3c-0.2,0.2-0.1,0.4,0.2,0.9
			c0.2,0.3,0.3,0.3,0.5,0.3h0.3l-0.1,0.3c0,0.2-0.1,0.4-0.1,0.5c0,0.1-0.1,0.3-0.2,0.5c-0.1,0.4-0.2,0.4-0.6,0.6
			c-0.5,0.2-0.7,0.5-0.8,0.9c0,0.2-0.2,0.4-0.6,0.8c-0.3,0.3-0.6,0.5-0.6,0.5c-0.1,0-0.1,0.1-0.1,0.2c0,0.2,0,0.2-0.3,0.4
			c-0.2,0.1-0.3,0.2-0.4,0.5c-0.1,0.2-0.2,0.5-0.2,0.5c-0.1,0.1-0.2,0.3-0.4,0.5c-0.3,0.5-0.3,0.6-0.6,0.9c-0.1,0.2-0.3,0.3-0.3,0.4
			s-0.1,0.2-0.3,0.4c-0.1,0.2-0.3,0.4-0.3,0.4c0,0.1-0.4,0.5-0.5,0.5c-0.1,0-0.5,0.3-0.5,0.5c0,0.1-0.1,0.2-0.2,0.2
			c-0.2,0.1-0.2,0.1-0.2,0.5c0,0.3,0,0.6-0.2,0.8c-0.4,0.7-0.4,0.8-0.4,1c0,0.1,0,0.2-0.2,0.3c-0.3,0.1-0.7,0.9-0.7,1.2
			c0,0.1,0,0.2-0.1,0.2c0,0-0.2,0.2-0.3,0.4c-0.1,0.2-0.2,0.4-0.3,0.4c-0.1,0-0.1,0.1,0,0.3c0.1,0.2,0.1,0.3,0,0.4
			c-0.1,0.1-0.1,0.2-0.1,0.3c0,0.1-0.2,0.3-0.5,0.6c-0.3,0.2-0.5,0.5-0.5,0.6c0,0.1-0.1,0.2-0.3,0.3c-0.2,0.1-0.5,0.2-0.9,0.5
			c-0.1,0.1-0.3,0.2-0.4,0.2c-0.2,0-0.8,0.7-0.8,0.9c0,0-0.1,0.1-0.2,0.1s-0.2,0-0.2,0.1c-0.1,0.2-0.9,0.1-1.3-0.2
			c-0.1-0.1-0.3-0.1-0.6-0.1c-0.6,0-0.7,0-0.8-0.2c-0.2-0.3-0.6-0.5-1-0.3c-0.5,0.2-0.8,0.1-1.1-0.1c-0.3-0.3-0.5-0.3-0.8-0.2
			c-0.3,0.1-0.9,0.3-1.4,0.3c-0.3,0-0.4,0-0.7-0.2c-0.2-0.1-0.3-0.3-0.4-0.3c-0.1-0.2-0.3-0.2-0.4,0.1c-0.1,0.2-0.2,0.2-0.4,0.2
			c-0.1,0-0.3,0-0.3,0.1c-0.1,0-0.2,0.1-0.3,0.1c-0.1,0-0.2,0-0.2,0.1c0,0.1-0.1,0.2-0.1,0.2c-0.1,0.1-0.7,0.4-0.9,0.4
			c-0.1,0-0.3,0.1-0.3,0.2c0,0.1-0.1,0.2-0.1,0.3c0,0.1-0.2,0.1-0.3,0.1C323.6,56.2,323.5,56.1,323.3,56L323.3,56z"/>
		<rect id="rect1108" x="178.7" y="42.3" class="st10" width="10.2" height="21.6"/>
		<path id="path1106" class="st11" d="M183.7,62.4c-0.2-0.5-0.6-2.3-1.1-3.8c-0.4-1.6-0.8-3-0.9-3.2c-0.1-0.3,0.5-0.4,2.4-0.4
			c2,0,2.5,0.1,2.4,0.4c-0.1,0.2-0.6,2-1.1,4c-0.5,2-1,3.7-1.1,3.8C184.1,63.3,183.9,62.9,183.7,62.4L183.7,62.4z M186,61.5
			c0-0.1,0.5-1.5,1.1-3.3l1.1-3.2l1.5-0.1l1.5-0.1l-1.4,1.8c-0.8,1-2,2.5-2.6,3.4C186.5,60.9,186,61.6,186,61.5L186,61.5z M179.4,58
			l-2.4-3l1.5,0.1l1.5,0.1l1,2.9c0.5,1.6,0.9,2.9,0.9,2.9C181.8,61,180.7,59.6,179.4,58L179.4,58z M176.7,53.5
			c0.1-0.2,0.6-0.9,1-1.6c0.7-1.1,0.9-1.2,2-1.2c1.3,0,1.3,0,0.7,1.7l-0.4,1.3l-1.8,0.1C176.8,53.8,176.5,53.8,176.7,53.5
			L176.7,53.5z M181.5,53.2c0.8-2.5,0.9-2.5,2.9-2.5h1.9l0.2,1.1c0.1,0.6,0.2,1.3,0.3,1.6c0.1,0.5-0.1,0.5-2.6,0.5
			C181.4,53.8,181.4,53.8,181.5,53.2L181.5,53.2z M188,52.5c-0.5-1.8-0.4-1.9,0.6-1.9c1,0,1.4,0.3,2.5,2.1l0.6,1.1h-1.7h-1.7
			L188,52.5z"/>
	</g>
</g>
</svg>
