<?xml version="1.0" encoding="utf-8"?>
<!-- Generator: Adobe Illustrator 24.2.0, SVG Export Plug-In . SVG Version: 6.00 Build 0)  -->
<svg version="1.1"
	 id="svg8" inkscape:export-filename="/Users/utilisateur/Desktop/SINGULARITY/CLIENTS/ENTREPRISES/vec logo formadult.png" inkscape:export-xdpi="93" inkscape:export-ydpi="93" inkscape:version="1.0 (4035a4f, 2020-05-01)" sodipodi:docname="logo formadult et services.svg" xmlns:cc="http://creativecommons.org/ns#" xmlns:dc="http://purl.org/dc/elements/1.1/" xmlns:inkscape="http://www.inkscape.org/namespaces/inkscape" xmlns:rdf="http://www.w3.org/1999/02/22-rdf-syntax-ns#" xmlns:sodipodi="http://sodipodi.sourceforge.net/DTD/sodipodi-0.dtd" xmlns:svg="http://www.w3.org/2000/svg"
	 xmlns="http://www.w3.org/2000/svg" xmlns:xlink="http://www.w3.org/1999/xlink" x="0px" y="0px" viewBox="0 0 595.3 111.9"
	 style="enable-background:new 0 0 595.3 111.9;" xml:space="preserve">
<style type="text/css">
	.st0{fill:#22324C;stroke:#000000;stroke-width:6.341697e-02;stroke-miterlimit:11.3386;stroke-opacity:0;}
	.st1{fill:#FFFFFF;}
	.st2{fill:#6EADF2;stroke:#000000;stroke-width:6.807373e-02;stroke-miterlimit:11.3386;stroke-opacity:0;}
	.st3{fill:#1E9BA1;stroke:#000000;stroke-width:6.882009e-02;stroke-miterlimit:11.3386;stroke-opacity:0;}
	
		.st4{opacity:0.998;fill:#22324C;stroke:#00002B;stroke-width:0.6893;stroke-miterlimit:11.3386;stroke-opacity:0;enable-background:new    ;}
	.st5{fill:#22324C;stroke:#000000;stroke-width:0.6882;stroke-miterlimit:11.3386;stroke-opacity:0;}
	.st6{fill:#4AE5EC;}
	.st7{fill:#FFFFFF;stroke:#000000;stroke-width:6.882009e-02;stroke-miterlimit:11.3386;stroke-opacity:0;}
	.st8{fill:#22324C;}
	.st9{font-family:'FredokaOne-Regular';}
	.st10{font-size:18.6472px;}
	.st11{font-size:18.2427px;}
	.st12{font-size:17.6289px;}
	.st13{font-size:17.8738px;}
	.st14{fill:#265883;}
	.st15{fill:#2A959B;}
	.st16{fill:#71ACF8;}
	.st17{fill:#FBFCFC;}
	.st18{fill:#2997A8;}
	.st19{fill:#247492;}
	.st20{fill:#224977;}
	.st21{fill:#223569;}
</style>
<sodipodi:namedview  bordercolor="#666666" borderopacity="1.0" id="base" inkscape:current-layer="layer1" inkscape:cx="484.63076" inkscape:cy="253.63166" inkscape:document-rotation="0" inkscape:document-units="mm" inkscape:guide-bbox="true" inkscape:pageopacity="0.0" inkscape:pageshadow="2" inkscape:snap-bbox="false" inkscape:snap-global="false" inkscape:window-height="934" inkscape:window-maximized="0" inkscape:window-width="1503" inkscape:window-x="34" inkscape:window-y="63" inkscape:zoom="1.4142136" pagecolor="#ffffff" showgrid="false" showguides="true">
	</sodipodi:namedview>
<g id="layer1" inkscape:groupmode="layer" inkscape:label="Calque 1">
	<g id="g1716">
		<path id="rect843" class="st0" d="M20.6,17.2H346v84.4H20.6V17.2z"/>
		<g id="text873" transform="matrix(0.88765578,0,0,0.94856161,0.83500971,7.2563839)">
			<path id="path1712" class="st1" d="M58.1,74.7c0.6,0.3,1,0.7,1,1c0,0.2-0.1,0.4-0.2,0.8l-4.5,9.1c-0.1,0.2-0.3,0.4-0.6,0.6
				c-0.2,0.1-0.5,0.2-0.7,0.2h-0.2c-0.3,0-0.5-0.1-0.8-0.2c-0.2-0.2-0.4-0.3-0.5-0.6l-4.5-9.1c-0.2-0.3-0.2-0.6-0.2-0.8
				c0-0.4,0.3-0.7,1-1c0.4-0.2,0.6-0.3,0.8-0.3c0.2,0,0.3,0,0.4,0.1c0.1,0,0.2,0.1,0.3,0.2c0.1,0.1,0.2,0.3,0.3,0.4
				c0.1,0.2,0.3,0.6,0.6,1.4c0.3,0.7,0.7,1.5,1.1,2.4c0.4,0.8,0.8,1.6,1.1,2.4c0.3,0.7,0.5,1.1,0.6,1.2l3.3-7.1
				c0.1-0.2,0.2-0.4,0.2-0.5c0.2-0.3,0.4-0.4,0.7-0.4S57.8,74.5,58.1,74.7L58.1,74.7z"/>
			<path id="path1714" class="st1" d="M58.1,82.2c0-1.3,0.5-2.4,1.4-3.2c0.9-0.8,2-1.3,3.1-1.3c1.2,0,2.2,0.4,3.1,1.3
				c0.9,0.8,1.4,1.9,1.4,3.2c0,0.9-0.2,1.7-0.7,2.4c-0.5,0.7-1,1.2-1.7,1.5c-0.7,0.3-1.4,0.5-2.1,0.5c-0.7,0-1.4-0.2-2.1-0.5
				c-0.7-0.4-1.2-0.9-1.7-1.6C58.4,83.8,58.1,83,58.1,82.2z M61.5,83.4c0.3,0.3,0.7,0.4,1.1,0.4c0.4,0,0.7-0.1,1.1-0.4
				c0.4-0.3,0.5-0.7,0.5-1.2c0-0.5-0.2-0.9-0.5-1.2c-0.3-0.3-0.7-0.4-1.1-0.4c-0.4,0-0.8,0.1-1.1,0.4S61,81.6,61,82.2
				C61,82.7,61.2,83.1,61.5,83.4z"/>
			<path id="path1716" class="st1" d="M68.2,85.7c-0.2-0.1-0.3-0.3-0.3-0.6s0.2-0.7,0.6-1.3c0.1-0.2,0.3-0.3,0.6-0.3
				c0.3,0,0.6,0.1,1.1,0.4c0.5,0.3,0.9,0.4,1.2,0.4c0.7,0,1-0.1,1-0.4c0-0.2-0.4-0.4-1.1-0.5c-0.7-0.1-1.4-0.4-2-0.8
				c-0.3-0.2-0.6-0.5-0.8-0.9c-0.2-0.4-0.3-0.9-0.3-1.5c0-1.7,1.2-2.6,3.5-2.6c0.8,0,1.6,0.2,2.4,0.6c0.4,0.2,0.6,0.4,0.6,0.7
				c0,0.3-0.1,0.6-0.4,1c-0.2,0.4-0.5,0.6-0.7,0.6c-0.1,0-0.4-0.1-0.7-0.2C72.5,80,72.1,80,71.7,80c-0.6,0-1,0.1-1,0.4
				c0,0.3,0.4,0.5,1.1,0.6c0.7,0.1,1.4,0.3,2.1,0.6c0.3,0.2,0.6,0.4,0.8,0.8c0.2,0.4,0.3,0.8,0.3,1.4c0,0.6-0.1,1-0.3,1.4
				c-0.2,0.4-0.5,0.7-0.9,0.9c-0.7,0.3-1.6,0.5-2.6,0.5C70.2,86.6,69.2,86.3,68.2,85.7L68.2,85.7z"/>
			<path id="path1718" class="st1" d="M80.2,88.8v-9.5c0-0.2,0-0.4,0-0.6c0-0.1,0.1-0.3,0.1-0.4c0.2-0.3,0.5-0.4,1.1-0.4
				c0.6,0,1,0.1,1.2,0.2c0.2,0.1,0.3,0.4,0.4,0.6c0.4-0.6,1.1-0.8,1.9-0.8c0.9,0,1.7,0.4,2.5,1.3c0.8,0.8,1.2,1.8,1.2,2.9
				s-0.4,2.1-1.2,2.9c-0.8,0.8-1.6,1.3-2.5,1.3S83.4,86,83,85.5v3.3c0,0.2,0,0.4,0,0.6c0,0.1-0.1,0.3-0.1,0.4
				c-0.1,0.2-0.2,0.3-0.4,0.3c-0.2,0.1-0.5,0.1-0.8,0.1c-0.3,0-0.6,0-0.8-0.1c-0.2-0.1-0.3-0.2-0.4-0.3c-0.1-0.2-0.1-0.3-0.1-0.4
				C80.2,89.2,80.2,89,80.2,88.8L80.2,88.8z M83.4,81.1c-0.2,0.3-0.4,0.6-0.4,1c0,0.3,0.1,0.7,0.4,1c0.3,0.3,0.6,0.4,1,0.4
				c0.4,0,0.7-0.1,1-0.4c0.3-0.3,0.4-0.6,0.4-1c0-0.4-0.1-0.7-0.4-1c-0.3-0.3-0.6-0.4-1-0.4C84,80.7,83.7,80.8,83.4,81.1z"/>
			<path id="path1720" class="st1" d="M95.5,78c0.2,0.1,0.4,0.2,0.5,0.3c0.1,0.2,0.2,0.4,0.2,0.7c0,0.3-0.1,0.7-0.3,1.1
				s-0.5,0.6-0.9,0.6c-0.2,0-0.4,0-0.6-0.1c-0.2-0.1-0.4-0.1-0.7-0.1s-0.6,0.1-0.8,0.3c-0.2,0.2-0.4,0.5-0.4,0.7V85
				c0,0.2,0,0.4,0,0.6c0,0.1-0.1,0.3-0.1,0.4c-0.2,0.3-0.6,0.4-1.3,0.4c-0.5,0-0.9-0.1-1.1-0.3c-0.2-0.2-0.3-0.4-0.3-0.7
				c0-0.1,0-0.3,0-0.5v-5.7c0-0.2,0-0.4,0-0.6c0-0.1,0.1-0.3,0.1-0.4c0.2-0.3,0.6-0.4,1.3-0.4c0.7,0,1.1,0.1,1.2,0.4
				c0.1,0.2,0.2,0.4,0.2,0.5c0.1-0.1,0.1-0.2,0.2-0.3c0.1-0.1,0.3-0.3,0.7-0.4c0.3-0.2,0.6-0.3,0.9-0.3c0.3,0,0.5,0,0.7,0
				C95.1,77.9,95.3,77.9,95.5,78L95.5,78z"/>
			<path id="path1722" class="st1" d="M96.4,82.2c0-1.3,0.5-2.4,1.4-3.2c0.9-0.8,2-1.3,3.1-1.3s2.2,0.4,3.1,1.3
				c0.9,0.8,1.4,1.9,1.4,3.2c0,0.9-0.2,1.7-0.7,2.4c-0.5,0.7-1,1.2-1.7,1.5c-0.7,0.3-1.4,0.5-2.1,0.5c-0.7,0-1.4-0.2-2.1-0.5
				c-0.7-0.4-1.2-0.9-1.7-1.6C96.6,83.8,96.4,83,96.4,82.2z M99.8,83.4c0.3,0.3,0.7,0.4,1.1,0.4s0.7-0.1,1.1-0.4
				c0.4-0.3,0.5-0.7,0.5-1.2c0-0.5-0.2-0.9-0.5-1.2c-0.3-0.3-0.7-0.4-1.1-0.4s-0.8,0.1-1.1,0.4c-0.3,0.3-0.5,0.7-0.5,1.2
				C99.3,82.7,99.5,83.1,99.8,83.4z"/>
			<path id="path1724" class="st1" d="M108.6,76.6c-0.2,0.1-0.5,0.1-0.8,0.1c-0.3,0-0.6,0-0.8-0.1c-0.2-0.1-0.3-0.2-0.4-0.3
				c-0.1-0.2-0.1-0.3-0.1-0.4c0-0.1,0-0.3,0-0.6c0-0.2,0-0.4,0-0.6c0-0.1,0.1-0.3,0.1-0.4c0.2-0.3,0.6-0.4,1.3-0.4
				c0.7,0,1.1,0.1,1.2,0.4c0.1,0.1,0.1,0.3,0.1,0.4c0,0.1,0,0.3,0,0.5v0.1c0,0.2,0,0.4,0,0.5c0,0.1-0.1,0.3-0.1,0.4
				C108.9,76.4,108.8,76.5,108.6,76.6L108.6,76.6z M107,77.9c0.2-0.1,0.5-0.1,0.8-0.1s0.6,0,0.8,0.1c0.2,0.1,0.3,0.2,0.4,0.3
				c0.1,0.2,0.1,0.3,0.1,0.4c0,0.1,0,0.3,0,0.6V86c0,1.3-0.4,2.3-1.3,3c-0.9,0.8-1.8,1.1-2.9,1.1c-0.2,0-0.4,0-0.6,0
				c-0.1,0-0.3-0.1-0.4-0.1c-0.3-0.2-0.4-0.5-0.4-1.2c0-0.6,0.1-1,0.4-1.2c0.2-0.2,0.5-0.2,0.9-0.2c0.4,0,0.7-0.1,1-0.3
				c0.3-0.2,0.5-0.6,0.5-1.2v-6.7c0-0.4,0-0.7,0.1-0.8C106.7,78.1,106.8,78,107,77.9L107,77.9z"/>
			<path id="path1726" class="st1" d="M118.8,81.2c0,0.7-0.2,1.2-0.5,1.5c-0.3,0.3-0.7,0.5-1.1,0.5h-3.9c0,0.3,0.2,0.6,0.5,0.8
				c0.4,0.2,0.7,0.3,1.1,0.3c0.6,0,1.1-0.1,1.5-0.2l0.2-0.1c0.3-0.1,0.5-0.2,0.7-0.2c0.3,0,0.6,0.2,0.9,0.7c0.1,0.3,0.2,0.5,0.2,0.7
				c0,1-1.2,1.4-3.5,1.4c-0.8,0-1.5-0.1-2.1-0.4c-0.6-0.3-1.1-0.7-1.4-1.1c-0.7-0.9-1-1.9-1-2.9c0-1.4,0.4-2.5,1.3-3.3
				c0.9-0.8,2-1.2,3.3-1.2c1.5,0,2.6,0.5,3.3,1.6C118.6,79.9,118.8,80.5,118.8,81.2z M115.3,81.6c0.4,0,0.6-0.2,0.6-0.5
				c0-0.2-0.1-0.5-0.3-0.6c-0.2-0.2-0.5-0.2-0.8-0.2c-0.3,0-0.7,0.1-1,0.4c-0.3,0.3-0.5,0.6-0.5,0.9H115.3z"/>
			<path id="path1728" class="st1" d="M124.6,80.8l-1.1-0.1v2.2c0,0.3,0,0.5,0.1,0.6c0.1,0.1,0.3,0.2,0.5,0.2c0.3,0,0.5,0,0.6,0
				c0.1,0,0.3,0.1,0.4,0.1c0.2,0.1,0.4,0.5,0.4,1.1c0,0.7-0.2,1.1-0.5,1.3c-0.2,0.1-0.3,0.1-0.4,0.1c-0.1,0-0.3,0-0.5,0
				c-1.1,0-2-0.3-2.6-0.8c-0.6-0.5-0.9-1.4-0.9-2.6v-2.4c-0.2,0-0.4,0-0.7,0s-0.4-0.1-0.6-0.3c-0.2-0.2-0.2-0.5-0.2-0.9
				c0-0.4,0-0.8,0.1-1c0.1-0.2,0.1-0.4,0.2-0.4c0.2-0.1,0.4-0.2,0.7-0.2l0.5,0.1v-1.7c0-0.2,0-0.4,0-0.6c0-0.1,0.1-0.2,0.2-0.4
				c0.1-0.3,0.6-0.4,1.3-0.4c0.7,0,1.2,0.2,1.3,0.6c0.1,0.2,0.1,0.5,0.1,0.8V78c0.5,0,0.8-0.1,1.1-0.1c0.2,0,0.4,0,0.6,0
				c0.1,0,0.3,0.1,0.4,0.1c0.3,0.1,0.4,0.6,0.4,1.3c0,0.7-0.1,1.1-0.4,1.3c-0.2,0.1-0.3,0.1-0.4,0.1
				C125.1,80.8,124.9,80.8,124.6,80.8L124.6,80.8z"/>
			<path id="path1730" class="st1" d="M127,85.7c-0.2-0.1-0.3-0.3-0.3-0.6c0-0.3,0.2-0.7,0.6-1.3c0.1-0.2,0.3-0.3,0.6-0.3
				c0.3,0,0.6,0.1,1.1,0.4c0.5,0.3,0.9,0.4,1.2,0.4c0.7,0,1-0.1,1-0.4c0-0.2-0.4-0.4-1.1-0.5c-0.7-0.1-1.4-0.4-2-0.8
				c-0.3-0.2-0.6-0.5-0.8-0.9c-0.2-0.4-0.3-0.9-0.3-1.5c0-1.7,1.2-2.6,3.5-2.6c0.8,0,1.6,0.2,2.4,0.6c0.4,0.2,0.6,0.4,0.6,0.7
				c0,0.3-0.1,0.6-0.4,1c-0.2,0.4-0.5,0.6-0.7,0.6c-0.1,0-0.4-0.1-0.7-0.2c-0.3-0.2-0.7-0.2-1.1-0.2c-0.6,0-1,0.1-1,0.4
				c0,0.3,0.4,0.5,1.1,0.6c0.7,0.1,1.4,0.3,2.1,0.6c0.3,0.2,0.6,0.4,0.8,0.8c0.2,0.4,0.3,0.8,0.3,1.4c0,0.6-0.1,1-0.3,1.4
				c-0.2,0.4-0.5,0.7-0.9,0.9c-0.7,0.3-1.6,0.5-2.6,0.5C129,86.6,128,86.3,127,85.7L127,85.7z"/>
			<path id="path1732" class="st1" d="M139,88.8v-9.5c0-0.2,0-0.4,0-0.6c0-0.1,0.1-0.3,0.1-0.4c0.2-0.3,0.5-0.4,1.1-0.4
				s1,0.1,1.2,0.2c0.2,0.1,0.3,0.4,0.4,0.6c0.4-0.6,1.1-0.8,1.9-0.8c0.9,0,1.7,0.4,2.5,1.3c0.8,0.8,1.2,1.8,1.2,2.9
				c0,1.1-0.4,2.1-1.2,2.9c-0.8,0.8-1.6,1.3-2.5,1.3s-1.5-0.2-1.9-0.7v3.3c0,0.2,0,0.4,0,0.6c0,0.1-0.1,0.3-0.1,0.4
				c-0.1,0.2-0.2,0.3-0.4,0.3c-0.2,0.1-0.5,0.1-0.8,0.1c-0.3,0-0.6,0-0.8-0.1c-0.2-0.1-0.3-0.2-0.4-0.3c-0.1-0.2-0.1-0.3-0.1-0.4
				C139,89.2,139,89,139,88.8L139,88.8z M142.3,81.1c-0.2,0.3-0.4,0.6-0.4,1c0,0.3,0.1,0.7,0.4,1c0.3,0.3,0.6,0.4,1,0.4
				c0.4,0,0.7-0.1,1-0.4c0.3-0.3,0.4-0.6,0.4-1c0-0.4-0.1-0.7-0.4-1c-0.3-0.3-0.6-0.4-1-0.4C142.8,80.7,142.5,80.8,142.3,81.1z"/>
			<path id="path1734" class="st1" d="M154.3,78c0.2,0.1,0.4,0.2,0.5,0.3c0.1,0.2,0.2,0.4,0.2,0.7c0,0.3-0.1,0.7-0.3,1.1
				c-0.2,0.4-0.5,0.6-0.9,0.6c-0.2,0-0.4,0-0.6-0.1c-0.2-0.1-0.4-0.1-0.7-0.1s-0.6,0.1-0.8,0.3c-0.2,0.2-0.4,0.5-0.4,0.7V85
				c0,0.2,0,0.4,0,0.6c0,0.1-0.1,0.3-0.1,0.4c-0.2,0.3-0.6,0.4-1.3,0.4c-0.5,0-0.9-0.1-1.1-0.3c-0.2-0.2-0.3-0.4-0.3-0.7
				c0-0.1,0-0.3,0-0.5v-5.7c0-0.2,0-0.4,0-0.6c0-0.1,0.1-0.3,0.1-0.4c0.2-0.3,0.6-0.4,1.3-0.4c0.7,0,1.1,0.1,1.2,0.4
				c0.1,0.2,0.2,0.4,0.2,0.5c0.1-0.1,0.1-0.2,0.2-0.3c0.1-0.1,0.3-0.3,0.7-0.4c0.3-0.2,0.6-0.3,0.9-0.3c0.3,0,0.5,0,0.7,0
				C153.9,77.9,154.1,77.9,154.3,78L154.3,78z"/>
			<path id="path1736" class="st1" d="M163.7,81.2c0,0.7-0.2,1.2-0.5,1.5c-0.3,0.3-0.7,0.5-1.1,0.5h-3.9c0,0.3,0.2,0.6,0.5,0.8
				c0.4,0.2,0.7,0.3,1.1,0.3c0.6,0,1.1-0.1,1.5-0.2l0.2-0.1c0.3-0.1,0.5-0.2,0.7-0.2c0.3,0,0.6,0.2,0.9,0.7c0.1,0.3,0.2,0.5,0.2,0.7
				c0,1-1.2,1.4-3.5,1.4c-0.8,0-1.5-0.1-2.1-0.4c-0.6-0.3-1.1-0.7-1.4-1.1c-0.7-0.9-1-1.9-1-2.9c0-1.4,0.4-2.5,1.3-3.3
				c0.9-0.8,2-1.2,3.3-1.2c1.5,0,2.6,0.5,3.3,1.6C163.6,79.9,163.7,80.5,163.7,81.2z M160.3,81.6c0.4,0,0.6-0.2,0.6-0.5
				c0-0.2-0.1-0.5-0.3-0.6c-0.2-0.2-0.5-0.2-0.8-0.2c-0.3,0-0.7,0.1-1,0.4c-0.3,0.3-0.5,0.6-0.5,0.9H160.3z"/>
			<path id="path1738" class="st1" d="M169.6,77.9c1.1,0,2,0.4,2.7,1.3c0.7,0.8,1.1,1.8,1.1,3V85c0,0.2,0,0.4,0,0.6
				c0,0.1-0.1,0.3-0.1,0.4c-0.2,0.3-0.6,0.4-1.3,0.4c-0.8,0-1.2-0.2-1.3-0.6c-0.1-0.2-0.1-0.5-0.1-0.8v-2.9c0-0.4-0.1-0.8-0.4-1
				c-0.2-0.2-0.6-0.4-1-0.4c-0.4,0-0.8,0.1-1,0.4c-0.3,0.3-0.4,0.6-0.4,1V85c0,0.2,0,0.4,0,0.6c0,0.1-0.1,0.3-0.1,0.4
				c-0.1,0.3-0.6,0.4-1.3,0.4c-0.7,0-1.1-0.1-1.3-0.4c-0.1-0.2-0.1-0.3-0.1-0.4c0-0.1,0-0.3,0-0.6v-5.8c0-0.2,0-0.4,0-0.5
				c0-0.1,0.1-0.3,0.2-0.4c0.2-0.3,0.6-0.4,1.3-0.4c0.7,0,1.1,0.1,1.2,0.4c0.1,0.2,0.2,0.4,0.2,0.7c0-0.1,0.1-0.2,0.3-0.3
				c0.2-0.1,0.3-0.3,0.4-0.3C168.7,78,169.1,77.9,169.6,77.9L169.6,77.9z"/>
			<path id="path1740" class="st1" d="M179.4,77.9c1.1,0,2,0.4,2.7,1.3c0.7,0.8,1.1,1.8,1.1,3V85c0,0.2,0,0.4,0,0.6
				c0,0.1-0.1,0.3-0.1,0.4c-0.2,0.3-0.6,0.4-1.3,0.4c-0.8,0-1.2-0.2-1.3-0.6c-0.1-0.2-0.1-0.5-0.1-0.8v-2.9c0-0.4-0.1-0.8-0.4-1
				c-0.2-0.2-0.6-0.4-1-0.4c-0.4,0-0.8,0.1-1,0.4c-0.3,0.3-0.4,0.6-0.4,1V85c0,0.2,0,0.4,0,0.6c0,0.1-0.1,0.3-0.1,0.4
				c-0.1,0.3-0.6,0.4-1.3,0.4c-0.7,0-1.1-0.1-1.3-0.4c-0.1-0.2-0.1-0.3-0.1-0.4c0-0.1,0-0.3,0-0.6v-5.8c0-0.2,0-0.4,0-0.5
				c0-0.1,0.1-0.3,0.2-0.4c0.2-0.3,0.6-0.4,1.3-0.4c0.7,0,1.1,0.1,1.2,0.4c0.1,0.2,0.2,0.4,0.2,0.7c0-0.1,0.1-0.2,0.3-0.3
				c0.2-0.1,0.3-0.3,0.4-0.3C178.6,78,179,77.9,179.4,77.9z"/>
			<path id="path1742" class="st1" d="M192.8,81.2c0,0.7-0.2,1.2-0.5,1.5c-0.3,0.3-0.7,0.5-1.1,0.5h-3.9c0,0.3,0.2,0.6,0.5,0.8
				c0.4,0.2,0.7,0.3,1.1,0.3c0.6,0,1.1-0.1,1.5-0.2l0.2-0.1c0.3-0.1,0.5-0.2,0.7-0.2c0.3,0,0.6,0.2,0.9,0.7c0.1,0.3,0.2,0.5,0.2,0.7
				c0,1-1.2,1.4-3.5,1.4c-0.8,0-1.5-0.1-2.1-0.4c-0.6-0.3-1.1-0.7-1.4-1.1c-0.7-0.9-1-1.9-1-2.9c0-1.4,0.4-2.5,1.3-3.3
				c0.9-0.8,2-1.2,3.3-1.2c1.5,0,2.6,0.5,3.3,1.6C192.6,79.9,192.8,80.5,192.8,81.2z M189.3,81.6c0.4,0,0.6-0.2,0.6-0.5
				c0-0.2-0.1-0.5-0.3-0.6c-0.2-0.2-0.5-0.2-0.8-0.2c-0.3,0-0.7,0.1-1,0.4c-0.3,0.3-0.5,0.6-0.5,0.9H189.3z"/>
			<path id="path1744" class="st1" d="M198.6,77.9c1.1,0,2,0.4,2.7,1.3c0.7,0.8,1.1,1.8,1.1,3V85c0,0.2,0,0.4,0,0.6
				c0,0.1-0.1,0.3-0.1,0.4c-0.2,0.3-0.6,0.4-1.3,0.4c-0.8,0-1.2-0.2-1.3-0.6c-0.1-0.2-0.1-0.5-0.1-0.8v-2.9c0-0.4-0.1-0.8-0.4-1
				c-0.2-0.2-0.6-0.4-1-0.4c-0.4,0-0.8,0.1-1,0.4c-0.3,0.3-0.4,0.6-0.4,1V85c0,0.2,0,0.4,0,0.6c0,0.1-0.1,0.3-0.1,0.4
				c-0.1,0.3-0.6,0.4-1.3,0.4c-0.7,0-1.1-0.1-1.3-0.4c-0.1-0.2-0.1-0.3-0.1-0.4c0-0.1,0-0.3,0-0.6v-5.8c0-0.2,0-0.4,0-0.5
				c0-0.1,0.1-0.3,0.2-0.4c0.2-0.3,0.6-0.4,1.3-0.4c0.7,0,1.1,0.1,1.2,0.4c0.1,0.2,0.2,0.4,0.2,0.7c0-0.1,0.1-0.2,0.3-0.3
				c0.2-0.1,0.3-0.3,0.4-0.3C197.7,78,198.1,77.9,198.6,77.9L198.6,77.9z"/>
			<path id="path1746" class="st1" d="M208.5,80.8l-1.1-0.1v2.2c0,0.3,0,0.5,0.1,0.6c0.1,0.1,0.3,0.2,0.5,0.2c0.3,0,0.5,0,0.6,0
				c0.1,0,0.3,0.1,0.4,0.1c0.2,0.1,0.4,0.5,0.4,1.1c0,0.7-0.2,1.1-0.5,1.3c-0.2,0.1-0.3,0.1-0.4,0.1c-0.1,0-0.3,0-0.5,0
				c-1.1,0-2-0.3-2.6-0.8c-0.6-0.5-0.9-1.4-0.9-2.6v-2.4c-0.2,0-0.4,0-0.7,0s-0.4-0.1-0.6-0.3c-0.2-0.2-0.2-0.5-0.2-0.9
				c0-0.4,0-0.8,0.1-1c0.1-0.2,0.1-0.4,0.2-0.4c0.2-0.1,0.4-0.2,0.7-0.2l0.5,0.1v-1.7c0-0.2,0-0.4,0-0.6c0-0.1,0.1-0.2,0.2-0.4
				c0.1-0.3,0.6-0.4,1.3-0.4c0.7,0,1.2,0.2,1.3,0.6c0.1,0.2,0.1,0.5,0.1,0.8V78c0.5,0,0.8-0.1,1.1-0.1c0.2,0,0.4,0,0.6,0
				c0.1,0,0.3,0.1,0.4,0.1c0.3,0.1,0.4,0.6,0.4,1.3c0,0.7-0.1,1.1-0.4,1.3c-0.2,0.1-0.3,0.1-0.4,0.1
				C208.9,80.8,208.7,80.8,208.5,80.8L208.5,80.8z"/>
			<path id="path1748" class="st1" d="M220,77.9c0.7,0,1.2,0.2,1.3,0.6c0.1,0.2,0.1,0.5,0.1,0.8c0,0.3,0,0.6-0.1,0.8
				c-0.1,0.2-0.2,0.3-0.3,0.4c-0.2,0.1-0.6,0.2-1,0.2l-1-0.1v4.4c0,0.4-0.1,0.7-0.2,0.9c-0.1,0.2-0.3,0.3-0.5,0.4
				c-0.2,0.1-0.5,0.1-0.8,0.1c-0.3,0-0.6,0-0.8-0.1c-0.2-0.1-0.3-0.2-0.4-0.3c-0.1-0.2-0.1-0.3-0.2-0.4c0-0.1,0-0.3,0-0.6v-4.3h-0.6
				c-0.3,0-0.5-0.1-0.6-0.2c-0.2-0.2-0.3-0.6-0.3-1.2c0-0.9,0.3-1.3,1-1.3h0.5v-0.9c0-0.8,0.3-1.6,0.9-2.3c0.6-0.7,1.5-1,2.6-1
				c0.2,0,0.4,0,0.6,0c0.1,0,0.3,0.1,0.4,0.1c0.3,0.1,0.4,0.6,0.4,1.3c0,0.5-0.1,0.9-0.3,1.1c-0.2,0.2-0.4,0.3-0.7,0.3
				c-0.1,0-0.2,0-0.5,0c-0.4,0-0.6,0.1-0.6,0.4V78L220,77.9z"/>
			<path id="path1750" class="st1" d="M221.7,82.2c0-1.3,0.5-2.4,1.4-3.2c0.9-0.8,2-1.3,3.1-1.3c1.2,0,2.2,0.4,3.1,1.3
				c0.9,0.8,1.4,1.9,1.4,3.2c0,0.9-0.2,1.7-0.7,2.4c-0.5,0.7-1,1.2-1.7,1.5c-0.7,0.3-1.4,0.5-2.1,0.5c-0.7,0-1.4-0.2-2.1-0.5
				c-0.7-0.4-1.2-0.9-1.7-1.6C221.9,83.8,221.7,83,221.7,82.2L221.7,82.2z M225.1,83.4c0.3,0.3,0.7,0.4,1.1,0.4s0.7-0.1,1.1-0.4
				c0.4-0.3,0.5-0.7,0.5-1.2c0-0.5-0.2-0.9-0.5-1.2c-0.3-0.3-0.7-0.4-1.1-0.4c-0.4,0-0.8,0.1-1.1,0.4c-0.3,0.3-0.5,0.7-0.5,1.2
				C224.6,82.7,224.7,83.1,225.1,83.4L225.1,83.4z"/>
			<path id="path1752" class="st1" d="M237.5,78c0.2,0.1,0.4,0.2,0.5,0.3c0.1,0.2,0.2,0.4,0.2,0.7c0,0.3-0.1,0.7-0.3,1.1
				c-0.2,0.4-0.5,0.6-0.9,0.6c-0.2,0-0.4,0-0.6-0.1c-0.2-0.1-0.4-0.1-0.7-0.1c-0.3,0-0.6,0.1-0.8,0.3c-0.2,0.2-0.4,0.5-0.4,0.7V85
				c0,0.2,0,0.4,0,0.6c0,0.1-0.1,0.3-0.1,0.4c-0.2,0.3-0.6,0.4-1.3,0.4c-0.5,0-0.9-0.1-1.1-0.3c-0.2-0.2-0.3-0.4-0.3-0.7
				c0-0.1,0-0.3,0-0.5v-5.7c0-0.2,0-0.4,0-0.6c0-0.1,0.1-0.3,0.1-0.4c0.2-0.3,0.6-0.4,1.3-0.4c0.7,0,1.1,0.1,1.2,0.4
				c0.1,0.2,0.2,0.4,0.2,0.5c0.1-0.1,0.1-0.2,0.2-0.3c0.1-0.1,0.3-0.3,0.7-0.4c0.3-0.2,0.6-0.3,0.9-0.3c0.3,0,0.5,0,0.7,0
				C237.1,77.9,237.3,77.9,237.5,78L237.5,78z"/>
			<path id="path1754" class="st1" d="M241.9,79c0.5-0.8,1.1-1.2,1.8-1.2c1.1,0,1.9,0.5,2.5,1.4c0.1-0.2,0.3-0.3,0.4-0.5
				c0.2-0.2,0.4-0.4,0.8-0.6c0.4-0.2,0.7-0.3,1.1-0.3c0.9,0,1.6,0.3,2.2,1c0.6,0.7,0.9,1.8,0.9,3.3V85c0,0.2,0,0.4,0,0.6
				c0,0.1-0.1,0.3-0.1,0.4c-0.1,0.3-0.6,0.4-1.3,0.4c-0.7,0-1.1-0.2-1.3-0.5c-0.1-0.2-0.1-0.3-0.1-0.4c0-0.1,0-0.3,0-0.6v-2.8
				c0-0.9-0.3-1.4-1-1.4c-0.4,0-0.6,0.1-0.8,0.4c-0.1,0.2-0.2,0.6-0.2,1.1V85c0,0.3,0,0.5,0,0.6c0,0.1-0.1,0.3-0.1,0.4
				c-0.2,0.3-0.6,0.4-1.3,0.4c-0.7,0-1.1-0.2-1.3-0.5c-0.1-0.2-0.1-0.3-0.1-0.4c0-0.1,0-0.3,0-0.6v-2.8c0-0.9-0.3-1.4-1-1.4
				c-0.7,0-1,0.5-1,1.4V85c0,0.2,0,0.4,0,0.6c0,0.1-0.1,0.3-0.1,0.4c-0.2,0.3-0.6,0.4-1.3,0.4c-0.7,0-1.1-0.1-1.3-0.4
				c-0.1-0.2-0.1-0.3-0.1-0.4c0-0.1,0-0.3,0-0.6v-5.7c0-0.2,0-0.4,0-0.6c0-0.1,0.1-0.3,0.2-0.4c0.2-0.3,0.5-0.4,1.2-0.4
				c0.6,0,1,0.1,1.2,0.3C241.8,78.4,241.9,78.7,241.9,79L241.9,79z"/>
			<path id="path1756" class="st1" d="M261.3,81.2c0,0.7-0.2,1.2-0.5,1.5c-0.3,0.3-0.7,0.5-1.1,0.5h-3.9c0,0.3,0.2,0.6,0.5,0.8
				c0.4,0.2,0.7,0.3,1.1,0.3c0.6,0,1.1-0.1,1.5-0.2l0.2-0.1c0.3-0.1,0.5-0.2,0.7-0.2c0.3,0,0.6,0.2,0.9,0.7c0.1,0.3,0.2,0.5,0.2,0.7
				c0,1-1.2,1.4-3.5,1.4c-0.8,0-1.5-0.1-2.1-0.4c-0.6-0.3-1.1-0.7-1.4-1.1c-0.7-0.9-1-1.9-1-2.9c0-1.4,0.4-2.5,1.3-3.3
				c0.9-0.8,2-1.2,3.3-1.2c1.5,0,2.6,0.5,3.3,1.6C261.1,79.9,261.3,80.5,261.3,81.2z M257.8,81.6c0.4,0,0.6-0.2,0.6-0.5
				c0-0.2-0.1-0.5-0.3-0.6c-0.2-0.2-0.5-0.2-0.8-0.2c-0.3,0-0.7,0.1-1,0.4c-0.3,0.3-0.5,0.6-0.5,0.9H257.8z"/>
		</g>
		<path id="rect889" class="st2" d="M297.9,0h68.7v56.1h-68.7V0z"/>
		<path id="rect891" class="st3" d="M297.9,17.2H346v38.9h-48.1V17.2z"/>
		<path id="path911" sodipodi:nodetypes="ccscc" class="st4" d="M73.4,70.4c0.9-8.4,4.4-11.2,11.4-10.7c4.3,0.1,8.9-0.4,10.9,10.3
			c2,10.3-18.4,2-18.4,2L73.4,70.4z"/>
		<g id="text841" transform="matrix(0.91122166,0,0,0.92403003,0.83500971,7.2563839)">
			<path id="path1761" class="st1" d="M73.3,25.3c0.9,0,1.5,0,2,0.1c0.5,0,1,0.2,1.5,0.5c0.6,0.3,1,0.8,1.2,1.6
				c0.2,0.7,0.3,1.7,0.3,3c0,1.2-0.1,2.2-0.3,3c-0.2,0.7-0.6,1.3-1.2,1.6c-0.6,0.3-1.1,0.4-1.6,0.5c-0.4,0-1.1,0.1-2,0.1H55.5v5.8
				h11.4c0.9,0,1.6,0,2,0.1c0.5,0,1,0.2,1.6,0.5c1,0.6,1.5,2.1,1.5,4.6c0,2.7-0.7,4.3-2.2,4.8c-0.6,0.2-1.6,0.3-3,0.3H55.5v10.9
				c0,0.9,0,1.6-0.1,2c0,0.4-0.2,0.9-0.5,1.5c-0.5,1-2,1.6-4.5,1.6c-2.7,0-4.3-0.7-4.7-2.2c-0.2-0.6-0.3-1.6-0.3-3V30.4
				c0-2,0.4-3.3,1.1-4c0.7-0.7,2.1-1.1,4.2-1.1H73.3z"/>
			<path id="path1763" class="st1" d="M76,52.5c0-4.6,1.6-8.5,4.9-11.5c3.2-3,6.9-4.5,11.1-4.5c4.2,0,7.9,1.5,11.1,4.5
				c3.2,3,4.8,6.8,4.8,11.4c0,3.2-0.8,6.1-2.5,8.6c-1.7,2.5-3.7,4.3-6.1,5.5c-2.4,1.2-4.8,1.7-7.4,1.7s-5-0.6-7.4-1.9
				c-2.4-1.3-4.4-3.1-6.1-5.6C76.8,58.3,76,55.6,76,52.5L76,52.5z M88.1,56.6c1.2,0.9,2.5,1.4,3.8,1.4s2.5-0.5,3.8-1.4
				c1.3-1,1.9-2.4,1.9-4.3c0-1.9-0.6-3.3-1.8-4.2s-2.5-1.4-3.9-1.4c-1.4,0-2.7,0.5-3.9,1.4c-1.2,1-1.8,2.4-1.8,4.3
				C86.2,54.3,86.9,55.7,88.1,56.6z"/>
			<path id="path1765" class="st1" d="M132.3,37.5c0.7,0.2,1.3,0.6,1.8,1.2c0.5,0.5,0.8,1.4,0.8,2.7c0,1.2-0.4,2.6-1.1,4.1
				c-0.7,1.5-1.8,2.2-3.2,2.2c-0.7,0-1.4-0.2-2-0.5c-0.6-0.3-1.4-0.5-2.5-0.5c-1,0-2,0.4-3,1.1c-0.9,0.7-1.3,1.6-1.3,2.7v12.2
				c0,0.9,0,1.6-0.1,2c0,0.4-0.2,0.9-0.5,1.5c-0.6,1-2.1,1.5-4.5,1.5c-1.9,0-3.2-0.3-4-1c-0.6-0.5-1-1.4-1-2.5c0-0.4,0-0.9,0-1.7
				V42.2c0-0.9,0-1.5,0.1-2c0.1-0.5,0.3-1,0.5-1.5c0.5-1,2-1.6,4.5-1.6c2.3,0,3.8,0.4,4.3,1.3c0.4,0.6,0.6,1.3,0.6,1.9
				c0.2-0.3,0.5-0.6,0.8-1c0.4-0.4,1.2-0.9,2.4-1.6c1.2-0.7,2.2-1,3.1-1c0.9,0,1.7,0.1,2.3,0.2C130.9,37.1,131.6,37.3,132.3,37.5
				L132.3,37.5z"/>
			<path id="path1767" class="st1" d="M148,41.2c1.8-2.7,4-4.1,6.5-4.1c3.9,0,6.9,1.7,8.8,5c0.4-0.6,0.9-1.2,1.5-1.8
				c0.6-0.7,1.6-1.4,2.9-2.1c1.3-0.8,2.7-1.2,4.1-1.2c3.1,0,5.7,1.2,7.8,3.6c2.1,2.4,3.1,6.3,3.1,11.8v10.1c0,0.9,0,1.6-0.1,2
				c0,0.4-0.2,0.9-0.5,1.5c-0.5,1-2,1.6-4.5,1.6c-2.4,0-3.9-0.5-4.5-1.6c-0.3-0.6-0.4-1.1-0.5-1.5c0-0.5-0.1-1.1-0.1-2V52.4
				c0-3.4-1.2-5-3.6-5c-1.4,0-2.3,0.4-2.8,1.3c-0.5,0.9-0.7,2.1-0.7,3.8v10.1c0,0.9,0,1.6-0.1,2c0,0.4-0.2,0.9-0.5,1.5
				c-0.5,1-2,1.6-4.5,1.6c-2.4,0-3.9-0.5-4.5-1.6c-0.3-0.6-0.4-1.1-0.5-1.5c0-0.5-0.1-1.1-0.1-2V52.4c0-3.4-1.2-5-3.6-5
				c-2.3,0-3.5,1.7-3.5,5v10.2c0,0.9,0,1.6-0.1,2c0,0.4-0.2,0.9-0.5,1.5c-0.6,1-2.1,1.5-4.5,1.5c-2.4,0-3.9-0.5-4.5-1.6
				c-0.3-0.6-0.4-1.1-0.5-1.5c0-0.4-0.1-1.1-0.1-2V42.2c0-0.9,0-1.5,0.1-2c0.1-0.5,0.3-1,0.6-1.5c0.6-1,1.9-1.6,4.1-1.6
				s3.6,0.3,4.2,1C147.7,38.9,148,39.9,148,41.2L148,41.2z"/>
			<path id="path1769" class="st1" d="M211.8,28.3l15.6,32.3c0.7,1.3,1,2.3,1,3c0,1.4-1.1,2.6-3.4,3.8c-1.3,0.7-2.4,1-3.1,1
				c-0.7,0-1.4-0.2-1.9-0.5c-0.5-0.3-0.8-0.7-1-1.1c-0.2-0.4-0.5-1-0.9-1.7l-3-6.3h-16l-3,6.3c-0.4,0.8-0.7,1.3-0.9,1.7
				c-0.2,0.3-0.5,0.7-1,1.1c-0.5,0.3-1.1,0.5-1.9,0.5c-0.7,0-1.8-0.3-3.1-1c-2.2-1.1-3.4-2.3-3.4-3.7c0-0.7,0.3-1.6,1-3l15.6-32.4
				c0.4-0.9,1.1-1.6,1.9-2.1c0.9-0.5,1.8-0.8,2.8-0.8C209.3,25.3,210.8,26.3,211.8,28.3z M207.2,42.2l-3.8,7.9h7.7L207.2,42.2z"/>
			<path id="path1771" class="st1" d="M249.9,24.5c0.3-0.6,0.8-1,1.6-1.2c0.7-0.2,1.7-0.3,2.9-0.3c1.2,0,2.2,0.1,3,0.3
				c0.7,0.2,1.2,0.6,1.5,1.2c0.3,0.6,0.5,1.1,0.5,1.6c0.1,0.4,0.1,1.1,0.1,2v34.6c0,0.9,0,1.6-0.1,2c0,0.4-0.2,0.9-0.5,1.4
				c-0.6,1-2.2,1.6-4.9,1.6c-2.7,0-4.1-0.9-4.5-2.8c-1.6,1.9-3.9,2.8-6.8,2.8c-3.5,0-6.6-1.5-9.5-4.5c-2.9-3-4.3-6.6-4.3-10.6
				c0-4.1,1.4-7.6,4.3-10.7c2.9-3,6.1-4.6,9.5-4.6c2.9,0,5.1,1,6.7,2.9V28c0-0.9,0-1.5,0.1-2C249.4,25.5,249.6,25,249.9,24.5
				L249.9,24.5z M240.5,55.9c1,1,2.2,1.6,3.6,1.6s2.6-0.5,3.5-1.6c1-1,1.4-2.2,1.4-3.4c0-1.3-0.5-2.5-1.4-3.5
				c-0.9-1.1-2.1-1.6-3.6-1.6c-1.5,0-2.8,0.5-3.7,1.6c-0.9,1-1.4,2.2-1.4,3.5C239,53.7,239.5,54.9,240.5,55.9L240.5,55.9z"/>
			<path id="path1773" class="st1" d="M277.6,67.6c-3.9,0-7.1-1.5-9.7-4.4c-2.5-3-3.8-6.6-3.8-10.8V42.2c0-0.9,0-1.6,0.1-2
				c0.1-0.4,0.3-0.9,0.5-1.5c0.5-1,2-1.6,4.5-1.6c2.7,0,4.3,0.7,4.7,2.2c0.2,0.6,0.3,1.6,0.3,3v10.1c0,1.6,0.4,2.8,1.3,3.7
				c0.9,0.9,2.1,1.3,3.6,1.3c1.5,0,2.8-0.5,3.7-1.4c1-0.9,1.4-2.1,1.4-3.6V42.2c0-0.9,0-1.5,0.1-2c0.1-0.5,0.3-1,0.6-1.6
				c0.5-1,2-1.5,4.5-1.5c2.4,0,3.9,0.5,4.5,1.6c0.3,0.6,0.4,1.1,0.5,1.6c0.1,0.4,0.1,1.1,0.1,2v20.5c0,0.8,0,1.5-0.1,2
				c0,0.4-0.2,0.9-0.5,1.4c-0.6,1-2.1,1.5-4.5,1.5c-2.4,0-3.8-0.5-4.3-1.4c-0.4-0.7-0.6-1.4-0.6-2.4c-0.2,0.3-0.5,0.7-1,1.2
				c-0.5,0.5-1.1,0.9-1.6,1.3C280.5,67.2,279.1,67.6,277.6,67.6z"/>
			<path id="path1775" class="st1" d="M299.1,27.9c0-0.9,0-1.5,0.1-2c0.1-0.5,0.3-1,0.5-1.6c0.5-1,2-1.6,4.5-1.6
				c2.4,0,3.8,0.5,4.4,1.6c0.3,0.6,0.5,1.1,0.5,1.6c0.1,0.5,0.1,1.1,0.1,2v26.8c0,1.4,0.1,2.3,0.3,2.7c0.2,0.3,0.7,0.5,1.5,0.5
				c0.8,0,1.4,0,1.6,0.1c0.3,0,0.6,0.2,1,0.5c0.8,0.5,1.2,1.9,1.2,4.1c0,2.4-0.4,3.9-1.2,4.5c-1,0.7-3.4,0.8-7.2,0.3
				c-3-0.4-4.9-1.4-5.8-3c-1.1-1.9-1.6-4.9-1.6-9L299.1,27.9z"/>
			<path id="path1777" class="st1" d="M333.4,47.4l-3.8-0.2v8c0,1,0.2,1.8,0.5,2.3c0.3,0.5,1,0.7,1.9,0.7c0.9,0,1.6,0,2.1,0.1
				c0.5,0,1,0.2,1.6,0.5c0.9,0.5,1.3,1.8,1.3,3.9c0,2.4-0.5,3.9-1.6,4.5c-0.6,0.3-1.1,0.4-1.6,0.5c-0.4,0-1.1,0.1-1.9,0.1
				c-4,0-7.1-0.9-9.1-2.7c-2.1-1.8-3.1-4.9-3.1-9.2v-8.6c-0.7,0.1-1.5,0.2-2.4,0.2c-0.8,0-1.6-0.3-2.1-1c-0.5-0.7-0.8-1.8-0.8-3.4
				c0-1.6,0.1-2.7,0.3-3.4c0.2-0.7,0.5-1.3,0.8-1.6c0.6-0.5,1.4-0.8,2.3-0.8l1.9,0.2v-6c0-0.9,0-1.5,0.1-2c0.1-0.4,0.3-0.9,0.6-1.4
				c0.5-1,2-1.4,4.5-1.4c2.6,0,4.2,0.7,4.7,2.1c0.2,0.6,0.3,1.6,0.3,3v5.7c1.7-0.2,3-0.2,3.8-0.2c0.9,0,1.5,0,2,0.1
				c0.5,0,1,0.2,1.6,0.5c1,0.5,1.5,2,1.5,4.5c0,2.4-0.5,3.9-1.6,4.5c-0.6,0.3-1.1,0.4-1.6,0.5C335,47.4,334.3,47.4,333.4,47.4
				L333.4,47.4z"/>
		</g>
		<path id="path1074" sodipodi:nodetypes="cscscc" class="st5" d="M82.1,59.6c-4.6,1-5.4,2.3-7.7,6.9c-3,6.2,19.1,8.4,20.6,0.4
			c-0.4-0.2-3-8.1-8.9-7.1c-7.6,1.3-4.1-2.5-4.1-2.5L82.1,59.6z"/>
		<path id="path1090" class="st6" d="M317.2,51.4c-0.2-0.2-0.2-0.2-0.5-0.1c-0.5,0.1-0.9,0.1-1.1-0.1c-0.1-0.1-0.2-0.2-0.2-0.3
			c0-0.1,0-0.1-0.2-0.1c-0.2,0.1-0.7-0.1-0.9-0.2c-0.1-0.1-0.3-0.2-0.3-0.2c-0.3-0.1-0.1-0.3,0.4-0.4l0.3-0.1l0-0.4
			c0-0.4,0-0.4,0.1-0.5c0.3-0.1,0.8-0.8,0.7-0.9c0,0,0-0.1,0.1-0.1c0.1-0.1,0.1-0.2,0.2-0.3c0-0.1,0.1-0.3,0.2-0.4
			c0.1-0.1,0.2-0.2,0.2-0.3c0-0.1,0.2-0.3,0.3-0.5c0.2-0.2,0.3-0.4,0.3-0.4c0,0,0-0.1,0.1-0.2c0.1-0.3,0.2-1.5,0.1-1.8
			c0-0.1,0-0.3,0-0.4c0.1-0.2,0.1-0.2-0.1-0.3c-0.2-0.1-0.2-0.4-0.1-0.5c0.3-0.4,0.9-1,1-1c0.1,0,0.2-0.2,0.2-0.4
			c0-0.1,0.1-0.2,0.1-0.2c0.2-0.2,0.3-0.5,0.4-1c0-0.3,0.1-0.6,0.1-0.7c0.1-0.2,0.1-0.2,0-0.3c-0.1-0.1-0.2-0.1-0.3-0.1
			c-0.1,0-0.2,0-0.4-0.2c-0.1-0.1-0.2-0.3-0.2-0.4c0-0.1-0.3-0.6-0.4-0.7c0,0-0.2-0.1-0.3-0.1c-0.1,0-0.3-0.1-0.3-0.1
			c0-0.1,0-0.1,0-0.2c0,0-0.1-0.1-0.2-0.2c-0.2-0.1-0.7-0.6-0.7-0.9c0-0.1-0.2-0.3-0.3-0.4l-0.2-0.2l0.2-0.4
			c0.2-0.4,0.2-0.4-0.1-0.6c-0.2-0.1-0.2-0.1-0.2-0.7c0-0.5,0-0.6-0.2-0.8c-0.2-0.2-0.3-0.8-0.3-0.9c0,0,0-0.2,0-0.3
			c-0.1-0.2-0.1-0.3,0-0.4c0.2-0.2,0.2-0.6,0.1-0.7c-0.1-0.1-0.1-0.2-0.1-0.5c0-0.3,0-0.4-0.2-0.4c-0.2-0.1-0.2-0.1-0.2-0.2
			c0-0.1,0-0.4,0-0.7c-0.1-0.4,0-0.5,0.1-0.7c0.1-0.1,0.1-0.3,0.1-0.4c0-0.2,0.2-0.7,0.4-0.9c0.2-0.2,0.4-0.5,0.7-0.9
			c0.3-0.5,0.6-0.7,1.5-1.2c0.1-0.1,0.2-0.2,0.2-0.2c0-0.2,0.2-0.4,0.6-0.9c0.4-0.5,0.4-0.5,0.5-1c0-0.3,0.1-0.6,0.2-0.7
			c0.1-0.1,0.2-0.3,0.2-0.4c0.1-0.2,0.1-0.2,0.4-0.3c0.4-0.1,1,0.1,1.7,0.5c0.3,0.1,0.6,0.3,0.6,0.3c0.1,0,0.5,0.2,0.9,0.4
			c0.6,0.3,0.8,0.4,1,0.3c0.3,0,0.9,0.1,1,0.2c0.1,0.1,0.3,0,0.4-0.1l0.1-0.1l0.4,0.2c0.2,0.1,0.5,0.2,0.6,0.2
			c0.1,0,0.3,0.2,0.5,0.3c0.2,0.2,0.4,0.2,0.7,0.3c0.2,0,0.6,0.2,0.9,0.3c0.3,0.1,0.5,0.3,0.5,0.3c0.1,0,0.6,0.4,0.9,0.7
			c0.6,0.6,2,1.8,2,1.8c0,0,0.2,0.1,0.4,0.3c0.2,0.1,0.4,0.3,0.6,0.4c0.1,0.1,0.3,0.3,0.3,0.3c0.1,0.2,0.3,0.3,0.5,0.2
			c0.2-0.2,0.4-0.2,0.6,0.1c0.1,0.2,0.3,0.3,0.4,0.4c0.1,0.1,0.2,0.2,0.3,0.3c0.1,0.1,0.2,0.1,0.2,0.1s0.2,0.1,0.3,0.2
			c0.1,0.1,0.4,0.3,0.6,0.4c0.2,0.1,0.4,0.3,0.6,0.4c0.3,0.3,0.5,0.4,0.8,0.3c0.2-0.1,0.3-0.1,0.7,0.1c0.4,0.3,0.6,0.5,0.6,1
			c0.1,0.5,0.1,0.6,0.3,0.6c0.1,0,0.1,0.1,0.1,0.1c-0.1,0.1-0.1,0.1,0,0.2c0.1,0.1,0.2,0.1,0.3,0.1c0.2,0,0.2,0,0,0.2
			c-0.1,0.2-0.1,0.4,0.2,0.8c0.2,0.3,0.2,0.3,0.5,0.3h0.3l0,0.3c0,0.2-0.1,0.3-0.1,0.4c0,0.1-0.1,0.3-0.2,0.5
			c-0.1,0.3-0.1,0.4-0.5,0.6c-0.5,0.2-0.6,0.4-0.7,0.8c0,0.2-0.1,0.3-0.5,0.7c-0.3,0.2-0.5,0.4-0.6,0.4c-0.1,0-0.1,0.1-0.1,0.2
			c0,0.2,0,0.2-0.2,0.3c-0.2,0.1-0.3,0.2-0.3,0.5c-0.1,0.2-0.2,0.4-0.2,0.5c-0.1,0.1-0.2,0.3-0.3,0.5c-0.3,0.5-0.3,0.5-0.6,0.9
			c-0.1,0.2-0.2,0.3-0.2,0.4s-0.1,0.2-0.3,0.4c-0.1,0.2-0.3,0.4-0.3,0.4c0,0.1-0.4,0.5-0.5,0.5c-0.1,0-0.5,0.3-0.5,0.4
			c0,0.1-0.1,0.1-0.2,0.2c-0.1,0.1-0.2,0.1-0.2,0.5c0,0.3,0,0.5-0.1,0.7c-0.3,0.6-0.4,0.8-0.4,0.9c0,0.1,0,0.2-0.2,0.2
			c-0.2,0.1-0.7,0.8-0.7,1.1c0,0.1,0,0.2-0.1,0.2c0,0-0.2,0.2-0.2,0.4c-0.1,0.2-0.2,0.4-0.3,0.4c-0.1,0-0.1,0.1,0,0.3
			c0.1,0.2,0.1,0.3,0,0.4c-0.1,0.1-0.1,0.2-0.1,0.2c0,0.1-0.2,0.3-0.4,0.5c-0.2,0.2-0.4,0.5-0.5,0.6c0,0.1-0.1,0.2-0.2,0.3
			c-0.2,0.1-0.5,0.2-0.8,0.4c-0.1,0.1-0.3,0.1-0.4,0.2c-0.2,0-0.8,0.7-0.8,0.8c0,0-0.1,0.1-0.2,0.1c-0.1,0-0.2,0-0.2,0.1
			c-0.1,0.2-0.8,0.1-1.2-0.2c-0.1-0.1-0.2-0.1-0.5-0.1c-0.6,0-0.6,0-0.8-0.2c-0.2-0.3-0.6-0.4-0.9-0.3c-0.4,0.2-0.7,0.1-1-0.1
			c-0.3-0.3-0.4-0.3-0.7-0.1c-0.3,0.1-0.8,0.2-1.3,0.3c-0.3,0-0.4,0-0.6-0.2c-0.1-0.1-0.3-0.2-0.3-0.3c-0.1-0.2-0.3-0.2-0.4,0.1
			c-0.1,0.2-0.2,0.2-0.3,0.2c-0.1,0-0.3,0-0.3,0.1s-0.2,0.1-0.3,0.1c-0.1,0-0.2,0-0.2,0.1c0,0.1-0.1,0.2-0.1,0.2
			c-0.1,0.1-0.6,0.4-0.9,0.4c-0.1,0-0.2,0.1-0.3,0.1c0,0.1-0.1,0.2-0.1,0.2c0,0.1-0.2,0.1-0.3,0.1C317.4,51.6,317.4,51.5,317.2,51.4
			L317.2,51.4z"/>
		<path id="rect1108" class="st7" d="M184.6,38.8h9.4v19.8h-9.4V38.8z"/>
		<path id="path1106" class="st8" d="M189.1,57.3c-0.2-0.5-0.6-2.1-1-3.5c-0.4-1.4-0.8-2.8-0.8-3c-0.1-0.3,0.4-0.3,2.2-0.3
			c1.8,0,2.3,0.1,2.2,0.4c-0.1,0.2-0.5,1.8-1,3.6c-0.5,1.8-0.9,3.4-1,3.5C189.5,58,189.3,57.7,189.1,57.3L189.1,57.3z M191.2,56.5
			c0,0,0.5-1.4,1-3l1-2.9l1.4-0.1l1.4-0.1l-1.3,1.7c-0.7,0.9-1.8,2.3-2.4,3.1C191.7,55.9,191.2,56.5,191.2,56.5L191.2,56.5z
			 M185.2,53.2l-2.2-2.8l1.4,0.1l1.4,0.1l0.9,2.6c0.5,1.4,0.8,2.7,0.8,2.7C187.4,55.9,186.4,54.7,185.2,53.2L185.2,53.2z
			 M182.7,49.1c0.1-0.2,0.5-0.8,1-1.5c0.7-1,0.9-1.1,1.8-1.1c1.2,0,1.2,0,0.7,1.6l-0.4,1.2l-1.6,0.1
			C182.8,49.4,182.5,49.3,182.7,49.1L182.7,49.1z M187.1,48.8c0.7-2.3,0.8-2.3,2.6-2.3h1.7l0.2,1c0.1,0.5,0.2,1.2,0.3,1.5
			c0.1,0.4-0.1,0.5-2.4,0.5C187,49.4,187,49.4,187.1,48.8z M193.1,48.2c-0.4-1.7-0.4-1.7,0.6-1.7c0.9,0,1.3,0.3,2.3,1.9l0.6,1H195
			h-1.6L193.1,48.2z"/>
		<text transform="matrix(1 0 0 1 412.4229 101.3046)" class="st9 st10">Médiation</text>
		<text transform="matrix(1 0 0 1 412.2451 30.0752)" class="st9 st11">Formation</text>
		<text transform="matrix(1 0 0 1 412.5781 54.0986)" class="st9 st12">Conseil</text>
		<text transform="matrix(1 0 0 1 412.6396 76.8466)" class="st9 st13">Accompagnement</text>
		<path id="path2906" class="st14" d="M396.6,29.7c-0.2-0.6-0.7-2.5-1.2-4.2s-0.9-3.4-1-3.6c-0.1-0.3,0.5-0.4,2.5-0.4
			c2.2,0,2.7,0.1,2.5,0.4c-0.1,0.2-0.6,2.2-1.2,4.4c-0.5,2.2-1.1,4.1-1.2,4.2C397,30.7,396.7,30.3,396.6,29.7L396.6,29.7z M399,28.8
			c0-0.1,0.5-1.7,1.2-3.6l1.2-3.5l1.6-0.1l1.6-0.1l-1.5,2c-0.8,1.1-2.1,2.8-2.8,3.7C399.6,28.1,399,28.8,399,28.8L399,28.8z
			 M391.9,24.8l-2.5-3.4l1.6,0.1l1.6,0.1l1,3.2c0.6,1.7,1,3.2,0.9,3.3C394.5,28.1,393.3,26.7,391.9,24.8L391.9,24.8z M389,19.8
			c0.1-0.2,0.6-1,1.1-1.8c0.8-1.2,1-1.4,2.1-1.4c1.4,0,1.4,0,0.8,1.9l-0.4,1.4l-1.9,0.1C389.1,20.2,388.8,20.2,389,19.8L389,19.8z
			 M394.2,19.5c0.8-2.8,0.9-2.8,3.1-2.8h2l0.2,1.2c0.1,0.7,0.3,1.4,0.3,1.8c0.1,0.5-0.1,0.6-2.8,0.6C394.1,20.2,394,20.2,394.2,19.5
			L394.2,19.5z M401.2,18.8c-0.5-2-0.5-2.1,0.7-2.1c1.1,0,1.5,0.4,2.6,2.3l0.7,1.2h-1.8h-1.8L401.2,18.8z"/>
		<path id="path2908" class="st15" d="M396.5,76.8c-0.2-0.6-0.7-2.5-1.2-4.3c-0.5-1.8-0.9-3.4-1-3.6c-0.1-0.3,0.5-0.4,2.6-0.4
			c2.2,0,2.8,0.1,2.6,0.4c-0.1,0.2-0.6,2.2-1.2,4.4c-0.6,2.2-1.1,4.1-1.3,4.2C396.9,77.8,396.7,77.4,396.5,76.8L396.5,76.8z
			 M399,75.8c0-0.1,0.6-1.7,1.2-3.6l1.2-3.5l1.7-0.1l1.7-0.1l-1.6,2c-0.9,1.1-2.2,2.8-2.9,3.7C399.6,75.2,399,75.9,399,75.8
			L399,75.8z M391.7,71.9l-2.6-3.4l1.7,0.1l1.7,0.1l1.1,3.2c0.6,1.8,1,3.2,1,3.3C394.4,75.2,393.1,73.7,391.7,71.9L391.7,71.9z
			 M388.6,66.9c0.1-0.2,0.7-1,1.2-1.8c0.8-1.2,1.1-1.4,2.2-1.4c1.4,0,1.4,0,0.8,1.9l-0.4,1.4l-2,0.1
			C388.8,67.3,388.4,67.2,388.6,66.9L388.6,66.9z M394.1,66.5c0.9-2.8,0.9-2.8,3.2-2.8h2.1l0.2,1.2c0.1,0.7,0.3,1.5,0.4,1.8
			c0.1,0.5-0.1,0.6-2.9,0.6C393.9,67.2,393.8,67.2,394.1,66.5L394.1,66.5z M401.3,65.8c-0.5-2-0.5-2.1,0.7-2.1
			c1.1,0,1.6,0.4,2.7,2.3l0.7,1.2h-1.9h-1.9L401.3,65.8z"/>
		<path id="path2910" class="st16" d="M396.5,53.3c-0.2-0.6-0.7-2.4-1.2-4.1c-0.5-1.7-0.9-3.2-1-3.5c-0.1-0.3,0.5-0.4,2.6-0.4
			c2.2,0,2.8,0.1,2.6,0.4c-0.1,0.2-0.6,2.1-1.2,4.2c-0.6,2.1-1.1,3.9-1.3,4.1C396.9,54.2,396.6,53.9,396.5,53.3L396.5,53.3z
			 M399,52.4c0-0.1,0.6-1.6,1.2-3.5l1.2-3.4l1.7-0.1l1.7-0.1l-1.6,1.9c-0.9,1.1-2.2,2.7-2.9,3.6C399.6,51.8,399,52.4,399,52.4
			L399,52.4z M391.7,48.6l-2.6-3.2l1.7,0.1l1.7,0.1l1.1,3c0.6,1.7,1,3.1,1,3.1C394.3,51.8,393.1,50.4,391.7,48.6L391.7,48.6z
			 M388.6,43.8c0.1-0.2,0.7-1,1.2-1.7c0.8-1.2,1.1-1.3,2.2-1.3c1.4,0,1.4,0,0.8,1.8l-0.4,1.4l-2,0.1
			C388.8,44.2,388.4,44.1,388.6,43.8L388.6,43.8z M394,43.5c0.9-2.7,0.9-2.7,3.2-2.7h2.1l0.2,1.2c0.1,0.6,0.3,1.4,0.4,1.7
			c0.1,0.5-0.1,0.5-2.9,0.5C393.9,44.1,393.8,44.1,394,43.5L394,43.5z M401.2,42.8c-0.5-1.9-0.5-2,0.7-2c1.1,0,1.6,0.3,2.7,2.2
			l0.7,1.2h-1.9h-1.9L401.2,42.8z"/>
		<g id="g1393" transform="matrix(0.41304983,0,0,0.39351997,80.293007,43.0728)">
			<path id="path1403" class="st17" d="M745.9,130.6v-17.8h20.5H787v17.8v17.8h-20.5h-20.5V130.6z"/>
			<path id="path1401" sodipodi:nodetypes="sssssssscssssssscssssssscccsssssscssssssssss" class="st18" d="M765.4,145.2
				c-0.5-1.4-1.7-6.1-2.9-10.4c-1.1-4.3-2.2-8.4-2.4-9.1c-0.3-1.2,0.3-1.4,6.3-1.4c6,0,6.6,0.1,6.3,1.4c-0.2,0.7-1.5,5.5-2.8,10.6
				C766.9,147.9,766.5,148.6,765.4,145.2L765.4,145.2z M774,133.7l3.3-9.3h4.2c3.2,0,4,0.2,3.4,1c-6.4,8.3-13.7,17.6-13.9,17.6
				C770.9,143,772.2,138.8,774,133.7z M755.2,134.6c-3.2-4.1-6.2-8.1-6.8-8.9c-0.9-1.3-0.7-1.4,3.2-1.4h4.1l2.9,8.7
				c1.3,3.9,2.6,8.2,2.4,8.4C760.8,141.6,758.3,138.8,755.2,134.6z M747.3,118.8c3.7-6.2,3.4-6.1,7.4-6c2.8,0.1,2.3,0.3,2.8,0.8
				c0.6,0.5-0.3,2.8-0.8,4.6l-1,3.2h-5h-5L747.3,118.8z M759.6,120c0-0.3,0.4-1,1-3.2c0,0,1.2-2.9,1.7-3.4c0.4-0.4,4.5-0.6,4.5-0.6
				c5.7,0,5.5-0.2,6.4,5.6l0.5,2.9h-7.4C762.4,121.3,759.6,120.3,759.6,120L759.6,120z M777.4,120.7c-0.2-0.3-0.6-1.6-0.9-2.9
				s-0.7-2.9-0.9-3.7c-0.3-1.1,0.1-1.4,3-1.4c3.3,0,3.5,0.2,5.9,3.9c1.3,2.2,2.4,4.1,2.4,4.3C787,121.5,777.8,121.3,777.4,120.7
				L777.4,120.7z"/>
			<path id="path1399" sodipodi:nodetypes="ssssssssccssscsssscssssssccccssssasscsss" class="st19" d="M765.1,143.7
				c-0.7-2.3-2-7-2.9-10.5c-0.9-3.4-1.8-6.8-2.1-7.5c-0.3-1.2,0.2-1.4,3.9-1.4c4.3,0,4.8,0.4,4.4,3.3c0,0.3,0.4,0.4,1,0.1
				c0.6-0.2,1.3,0,1.6,0.4c0.3,0.5,0.2,0.8-0.2,0.8c-0.8,0-1.9,3.2-2.1,6c-0.3,1.5-0.3,2-0.3,3.2c-0.2,1.1,0.3,2.2,0,2
				c-0.3-0.2-0.4,0.3-0.2,1c0.2,0.8-0.1,2.6-0.7,4.1l-1.1,2.6L765.1,143.7z M755.2,134.6c-3.2-4.1-6.2-8.1-6.8-8.9
				c-0.9-1.3-0.7-1.4,3.1-1.4l3.6,0.1l3.1,8.7c1.7,4.6,3.1,9.1,2.7,8.2C760.5,140.4,758.4,138.7,755.2,134.6L755.2,134.6z
				 M747.3,118.8c3.6-6.1,3.5-6,7.3-6c0,0,2.2-0.4,2.9,0.6c0.8,1.2-0.5,3.7-0.5,3.7l-1.2,4.3h-5h-5L747.3,118.8z M759.4,120.2
				c-0.1-0.5,0.9-2.6,1.5-4.1c0,0,0.8-2.5,1.6-3c0.5-0.3,2.5-0.3,3.7-0.3c1.3,0,4.1-0.2,3.7,0.3c-0.4,0.7-0.9,2.2-0.7,4.6l0.3,3.6
				h-5.3c-4.2,0-4.7,0.2-4.8-0.7L759.4,120.2z"/>
			<path id="path1397" sodipodi:nodetypes="sscssssssccccsssssss" class="st20" d="M754.3,133.5c-7.9-10.1-7.6-9.1-2.8-9.1h4.1
				l2.4,7.4c1.3,4,2.1,7.5,1.8,7.7C759.6,139.7,757.1,137,754.3,133.5L754.3,133.5z M747.3,118.8c3.6-6.1,3.2-6.2,7-6.2
				c0,0,2.4-0.2,3.2,0.8c0.8,1.2-0.5,3.6-0.5,3.6l-1.3,4.3l-4.9,0l-4.9,0L747.3,118.8z M759.4,119.9c0.1-0.4-0.1,0.1,0.4,0.2
				c0.8,0.1,1.1,0.7,1.1,0.9c0,0.2-0.3,0.2-0.7,0.2s-1-0.3-0.9-0.9L759.4,119.9z"/>
			<path id="path1395" class="st21" d="M751.7,130.3c-0.4-0.6-1.6-2.2-2.6-3.5l-1.8-2.4h2.8c2.7,0,2.8,0.1,2.4,2
				c-0.3,1.1-0.1,2.6,0.3,3.5C753.8,131.5,752.9,131.9,751.7,130.3L751.7,130.3z M747.3,118.8c3.1-5.3,3.7-6,4.8-6
				c0.9,0,1.2,1,1.2,4.3l0,4.3h-3.8h-3.8L747.3,118.8z"/>
		</g>
	</g>
</g>
</svg>
